<svg version="1.2" xmlns="http://www.w3.org/2000/svg" viewBox="0 0 920 220" width="920" height="220"><defs><linearGradient id="P" gradientUnits="userSpaceOnUse"/><linearGradient id="g1" x2="1" href="#P" gradientTransform="matrix(188,192,-192,188,18,14)"><stop stop-color="#55d6be"/><stop offset=".52" stop-color="#22b9d0"/><stop offset="1" stop-color="#2b7de9"/></linearGradient></defs><style>tspan{white-space:pre}.a{fill:url(#g1)}.b{opacity:.35;fill:none;stroke:#fff;stroke-width:5}.c{opacity:.5;fill:none;stroke:#fff;stroke-width:5}.d{fill:#f2fbff}.e{fill:none;stroke:#2a7ee8;stroke-linecap:round;stroke-width:6}.f{font-size: 102px;fill: #000000;font-family: "Poppins"}.g{fill:#55d6be}.h{fill:#fff}</style><path fill-rule="evenodd" class="a" d="m74 12h72c34.2 0 62 27.8 62 62v72c0 34.2-27.8 62-62 62h-72c-34.2 0-62-27.8-62-62v-72c0-34.2 27.8-62 62-62z"/><path fill-rule="evenodd" class="b" d="m110 165c-31 0-56-25-56-56 0-31 25-56 56-56 31 0 56 25 56 56 0 31-25 56-56 56z"/><path fill-rule="evenodd" class="c" d="m110 149c-22.1 0-40-17.9-40-40 0-22.1 17.9-40 40-40 22.1 0 40 17.9 40 40 0 22.1-17.9 40-40 40z"/><path class="d" d="m82 88c0-8.8 7.2-16 16-16h43c8.8 0 16 7.2 16 16v32c0 8.8-7.2 16-16 16h-25l-20 19v-19h2c-8.8 0-16-7.2-16-16z"/><path fill-rule="evenodd" class="e" d="m98 96h43m-43 13h43m-43 13h30"/><text transform="translate(248,138)"><tspan x="0" y="0" class="f">ChatNest
</tspan></text><path class="g" d="m794 52c14 0 26 11 26 26 0 15-12 26-26 26-14 0-26-11-26-26 0-15 12-26 26-26z"/><path class="h" d="m794 62l4 11h11l-9 7 4 11-10-7-10 7 4-11-9-7h11z"/></svg>